# xmcd
#
# Track frame offsets: 
#        150
#        21753
#        35704
#        47285
#        60246
#        73083
#        87334
#        99333
#        110069
#        122834
#        138575
#        151068
#        162824
#        182438
#        197292
#        199375
#        210989
#        221640
#        232854
#        244900
#        255036
#        269648
#        280278
#        296742
#        310921
#
# Disc length: 4304 seconds
#
# Revision: 0
# Processed by: cddbd v1.5PL3 Copyright (c) Steve Scherf et al.
# Submitted via: ExactAudioCopy v0.95a3
#
DISCID=6110ce19
DTITLE=Johnny Cash - More American Outtakes
DYEAR=2003
DGENRE=Country
TTITLE0=Banks of the Ohio
TTITLE1=Thirteen (additional guitar)
TTITLE2=Drive on
TTITLE3=Like a soldier
TTITLE4=The wonder of you
TTITLE5=Bad news
TTITLE6=All of god's children ain't free
TTITLE7=One more ride
TTITLE8=Unchained
TTITLE9=I've been everywhere Take 1
TTITLE10=Don't sell Daddy anymore whiskey
TTITLE11=The devil
TTITLE12=As long as the grass shall grow
TTITLE13=I changed the lock Take 1
TTITLE14=I changed the lock Take 2
TTITLE15=Mean eyed cat
TTITLE16=The one rose Take 1
TTITLE17=Country boy
TTITLE18=I never picked cotton
TTITLE19=That lucky old sun
TTITLE20=Meet me in heaven
TTITLE21=The one rose Take 2
TTITLE22=Rowboat
TTITLE23=I've been everywhere Take 2
TTITLE24=Two timin' woman
EXTD=
EXTT0=
EXTT1=
EXTT2=
EXTT3=
EXTT4=
EXTT5=
EXTT6=
EXTT7=
EXTT8=
EXTT9=
EXTT10=
EXTT11=
EXTT12=
EXTT13=
EXTT14=
EXTT15=
EXTT16=
EXTT17=
EXTT18=
EXTT19=
EXTT20=
EXTT21=
EXTT22=
EXTT23=
EXTT24=
PLAYORDER=
